<svg width="2399" height="1981" viewBox="0 0 2399 1981" fill="none" xmlns="http://www.w3.org/2000/svg">
<circle cx="797.126" cy="1009.26" r="484.25" transform="rotate(-46.2913 797.126 1009.26)" stroke="#333842" stroke-opacity="0.24" stroke-width="1.5"/>
<circle cx="851.497" cy="1006.53" r="484.25" transform="rotate(-46.2913 851.497 1006.53)" stroke="#333842" stroke-opacity="0.24" stroke-width="1.5"/>
<circle cx="905.868" cy="1003.79" r="484.25" transform="rotate(-46.2913 905.868 1003.79)" stroke="#333842" stroke-opacity="0.24" stroke-width="1.5"/>
<circle cx="960.238" cy="1001.05" r="484.25" transform="rotate(-46.2913 960.238 1001.05)" stroke="#333842" stroke-opacity="0.24" stroke-width="1.5"/>
<circle cx="1014.61" cy="998.307" r="484.25" transform="rotate(-46.2913 1014.61 998.307)" stroke="#333842" stroke-opacity="0.24" stroke-width="1.5"/>
<circle cx="1068.98" cy="995.568" r="484.25" transform="rotate(-46.2913 1068.98 995.568)" stroke="#333842" stroke-opacity="0.24" stroke-width="1.5"/>
<circle cx="1123.35" cy="992.828" r="484.25" transform="rotate(-46.2913 1123.35 992.828)" stroke="#333842" stroke-opacity="0.24" stroke-width="1.5"/>
<circle cx="1177.72" cy="990.089" r="484.25" transform="rotate(-46.2913 1177.72 990.089)" stroke="#333842" stroke-opacity="0.24" stroke-width="1.5"/>
<circle cx="1232.09" cy="987.349" r="484.25" transform="rotate(-46.2913 1232.09 987.349)" stroke="#333842" stroke-opacity="0.24" stroke-width="1.5"/>
<circle cx="1286.46" cy="984.61" r="484.25" transform="rotate(-46.2913 1286.46 984.61)" stroke="#333842" stroke-opacity="0.24" stroke-width="1.5"/>
<circle cx="1340.83" cy="981.87" r="484.25" transform="rotate(-46.2913 1340.83 981.87)" stroke="#333842" stroke-opacity="0.24" stroke-width="1.5"/>
<circle cx="1395.21" cy="979.131" r="484.25" transform="rotate(-46.2913 1395.21 979.131)" stroke="#333842" stroke-opacity="0.24" stroke-width="1.5"/>
<circle cx="1446.72" cy="977.201" r="484.25" transform="rotate(-46.2913 1446.72 977.201)" stroke="#333842" stroke-opacity="0.24" stroke-width="1.5"/>
<circle cx="1498.23" cy="975.269" r="484.25" transform="rotate(-46.2913 1498.23 975.269)" stroke="#333842" stroke-opacity="0.24" stroke-width="1.5"/>
<circle cx="1549.75" cy="973.339" r="484.25" transform="rotate(-46.2913 1549.75 973.339)" stroke="#333842" stroke-opacity="0.24" stroke-width="1.5"/>
<circle cx="1601.26" cy="971.408" r="484.25" transform="rotate(-46.2913 1601.26 971.408)" stroke="#333842" stroke-opacity="0.24" stroke-width="1.5"/>
</svg>
